<svg width="1988" height="38" viewBox="0 0 1988 38" fill="none" xmlns="http://www.w3.org/2000/svg">
<path d="M93.9551 3.22037L93.9562 3.22019C108.253 0.681522 129.881 0.682224 145.372 3.08593L145.376 3.08667C152.32 4.28852 169.128 8.15735 182.731 11.758L182.731 11.7583C212.457 19.7561 228.566 22.4163 245.467 22.4163C261.699 22.4163 274.74 20.157 309.938 11.0909L309.938 11.0908C345.414 2.02181 356.108 0.548273 376.545 1.48327L376.545 1.4833C393.237 2.28449 407.523 4.95588 429.401 11.0923L429.401 11.0924C465.785 21.3545 490.414 24.2789 513.966 21.2186C520.619 20.287 539.805 16.024 556.605 11.7574C594.745 2.02222 605.174 0.54825 625.878 1.48326L625.878 1.4833C642.57 2.28449 656.856 4.95588 678.734 11.0923L678.667 11.333L678.734 11.0924C715.118 21.3545 739.748 24.2788 763.166 21.2186C769.819 20.287 789.005 16.024 805.805 11.7574C844.079 2.02221 854.507 0.548252 875.211 1.48326L875.213 1.48337C892.573 2.41814 900.994 4.0238 937.396 13.4911L937.333 13.733L937.396 13.4911C960.658 19.5564 976.666 22.583 992.667 22.583C1008.67 22.583 1024.68 19.5564 1047.94 13.4911L1048 13.733L1047.94 13.4911C1084.34 4.0238 1092.76 2.41814 1110.12 1.48336L1110.12 1.48326C1130.83 0.54825 1141.25 2.02222 1179.39 11.7573C1196.33 16.0239 1215.51 20.2871 1222.03 21.2187C1245.59 24.2788 1270.22 21.3543 1306.6 11.0924L1306.67 11.333L1306.6 11.0923C1328.48 4.95588 1342.76 2.28449 1359.45 1.4833L1359.47 1.73301L1359.46 1.48327C1380.03 0.548231 1390.19 2.02234 1428.73 11.7573C1467.12 21.489 1477.36 22.9482 1497.86 22.0166L1497.87 22.2663L1497.86 22.0166C1515.83 21.2178 1524.21 19.6235 1555.93 11.0916C1581.14 4.29042 1598.03 0.916143 1615.45 1.01635C1632.87 1.11654 1650.79 4.69043 1678.06 11.7576C1705.66 18.8905 1723.4 22.4497 1740.93 22.4497C1758.46 22.4497 1775.8 18.8908 1802.6 11.7581C1829.07 4.69088 1846.3 1.11654 1863.57 1.01635C1880.83 0.916145 1898.13 4.29019 1924.73 11.0908L1924.67 11.333L1924.73 11.0909C1958.33 19.758 1973.1 22.4163 1986.13 22.4163H1986.38V22.6663V26.6663V26.9163H1986.13C1973.03 26.9163 1958.2 24.2414 1924.6 15.5752C1898.01 8.77583 1880.77 5.41654 1863.57 5.51634C1846.37 5.61614 1829.2 9.17513 1802.73 16.2412C1775.93 23.3752 1758.53 26.9497 1740.93 26.9497C1723.33 26.9497 1705.54 23.3755 1677.94 16.2417L1678 15.9997L1677.94 16.2417C1650.67 9.17558 1632.8 5.61614 1615.45 5.51634C1598.1 5.41654 1581.26 8.77559 1556.07 15.5744L1556 15.333L1556.06 15.5744C1524.33 24.1092 1515.91 25.7149 1497.88 26.5161C1477.31 27.4511 1467.01 25.977 1428.61 16.2421C1390.08 6.51035 1379.97 5.05112 1359.48 5.98272C1342.84 6.78152 1328.59 9.44347 1306.73 15.5736C1270.32 25.8447 1245.61 28.7871 1221.97 25.7143L1221.96 25.7138C1215.42 24.7784 1196.2 20.5085 1179.27 16.2421L1179.33 15.9997L1179.27 16.2419C1141.15 6.51064 1130.77 5.05116 1110.15 5.98271C1092.84 6.91461 1084.46 8.50909 1048.06 17.9749C1024.79 24.0429 1008.73 27.083 992.667 27.083C976.6 27.083 960.542 24.0429 937.27 17.975C900.874 8.50914 892.494 6.91463 875.188 5.98272C854.559 5.05114 844.187 6.51059 805.928 16.242L805.867 15.9997L805.928 16.242C789.129 20.5084 769.917 24.7785 763.234 25.7139L763.232 25.7142C739.718 28.7871 715.014 25.8447 678.599 15.5737C656.744 9.44356 642.497 6.7816 625.855 5.98276C605.226 5.0511 594.854 6.51046 556.728 16.2419L556.667 15.9997L556.728 16.242C539.929 20.5084 520.716 24.7785 514.034 25.7139L514.032 25.7143C490.385 28.7871 465.681 25.8447 429.265 15.5736C407.41 9.44345 393.163 6.78152 376.521 5.98272C356.158 5.0511 345.519 6.51095 310.062 15.5752C274.86 24.6423 261.767 26.9163 245.467 26.9163C228.501 26.9163 212.343 24.2432 182.602 16.2411C155.804 9.1085 138.465 5.54967 120.933 5.54967C103.401 5.54967 85.661 9.10877 58.0629 16.2416C28.4641 23.9746 12.3024 26.9163 0.533203 26.9163H0.283203V26.6663V22.6663V22.4163H0.533203C12.2307 22.4163 28.3356 19.4914 57.9367 11.7578L57.9376 11.7576C71.9363 8.1579 88.0782 4.28891 93.9551 3.22037Z" fill="#7E7E7E" stroke="#7E7E7E" stroke-width="0.5"/>
<path d="M94.4219 12.9557L94.423 12.9555C108.72 10.4169 130.348 10.4176 145.838 12.8213L145.843 12.822C152.787 14.0239 169.595 17.8927 183.197 21.4933L183.198 21.4936C212.924 29.4915 229.032 32.1517 245.933 32.1517C262.166 32.1517 275.206 29.8924 310.404 20.8263L310.405 20.8261C345.881 11.7572 356.575 10.2836 377.011 11.2186L377.012 11.2186C393.704 12.0198 407.99 14.6912 429.867 20.8276L429.868 20.8277C466.251 31.0898 490.881 34.0142 514.433 30.9539C521.086 30.0224 540.272 25.7593 557.071 21.4928C595.212 11.7576 605.641 10.2836 626.345 11.2186L626.345 11.2186C643.037 12.0198 657.323 14.6912 679.201 20.8276L679.133 21.0684L679.201 20.8277C715.585 31.0899 740.214 34.0142 763.633 30.9539C770.286 30.0224 789.472 25.7593 806.272 21.4927C844.546 11.7576 854.974 10.2836 875.678 11.2186L875.68 11.2187C893.04 12.1535 901.461 13.7591 937.863 23.2264L937.8 23.4684L937.863 23.2264C961.125 29.2918 977.133 32.3184 993.133 32.3184C1009.13 32.3184 1025.14 29.2918 1048.4 23.2264L1048.47 23.4684L1048.4 23.2264C1084.81 13.7591 1093.23 12.1535 1110.59 11.2187L1110.59 11.2186C1131.29 10.2836 1141.72 11.7576 1179.86 21.4926C1196.79 25.7593 1215.98 30.0225 1222.5 30.954C1246.05 34.0141 1270.68 31.0897 1307.07 20.8277L1307.13 21.0684L1307.07 20.8276C1328.94 14.6912 1343.23 12.0198 1359.92 11.2186L1359.93 11.4684L1359.92 11.2186C1380.49 10.2836 1390.65 11.7577 1429.19 21.4926C1467.59 31.2243 1477.83 32.6836 1498.32 31.752L1498.33 32.0017L1498.32 31.7519C1516.29 30.9532 1524.67 29.3588 1556.4 20.827C1581.61 14.0258 1598.5 10.6515 1615.92 10.7517C1633.33 10.8519 1651.26 14.4258 1678.53 21.493C1706.13 28.6259 1723.87 32.185 1741.4 32.185C1758.93 32.185 1776.27 28.6261 1803.07 21.4935C1829.54 14.4262 1846.76 10.8519 1864.03 10.7517C1881.3 10.6515 1898.59 14.0255 1925.2 20.8261L1925.13 21.0684L1925.2 20.8263C1958.8 29.4933 1973.57 32.1517 1986.6 32.1517H1986.85V32.4017V36.4017V36.6517H1986.6C1973.5 36.6517 1958.67 33.9767 1925.07 25.3106C1898.47 18.5112 1881.23 15.1519 1864.03 15.2517C1846.84 15.3515 1829.66 18.9105 1803.2 25.9766C1776.4 33.1106 1759 36.685 1741.4 36.685C1723.8 36.685 1706.01 33.1108 1678.4 25.9771L1678.47 25.735L1678.4 25.977C1651.14 18.9109 1633.27 15.3515 1615.92 15.2517C1598.57 15.1519 1581.73 18.5109 1556.53 25.3097L1556.47 25.0684L1556.53 25.3098C1524.79 33.8446 1516.37 35.4502 1498.34 36.2515C1477.77 37.1865 1467.48 35.7124 1429.07 25.9774C1390.55 16.2457 1380.44 14.7865 1359.95 15.7181C1343.3 16.5169 1329.06 19.1788 1307.2 25.309C1270.79 35.5801 1246.08 38.5224 1222.43 35.4496L1222.43 35.4492C1215.88 34.5137 1196.67 30.2438 1179.74 25.9774L1179.8 25.735L1179.74 25.9773C1141.61 16.246 1131.24 14.7865 1110.61 15.7181C1093.31 16.65 1084.93 18.2444 1048.53 27.7103C1025.26 33.7783 1009.2 36.8184 993.133 36.8184C977.067 36.8184 961.009 33.7783 937.737 27.7103C901.34 18.2445 892.96 16.65 875.655 15.7181C855.026 14.7865 844.654 16.2459 806.395 25.9773L806.333 25.735L806.395 25.9773C789.596 30.2438 770.383 34.5138 763.701 35.4493L763.699 35.4496C740.185 38.5225 715.481 35.58 679.066 25.3091C657.21 19.1789 642.963 16.517 626.322 15.7181C605.693 14.7865 595.321 16.2458 557.195 25.9773L557.133 25.735L557.195 25.9773C540.396 30.2438 521.183 34.5138 514.501 35.4493L514.499 35.4496C490.852 38.5224 466.148 35.5801 429.732 25.309C407.877 19.1788 393.63 16.5169 376.988 15.7181C356.625 14.7865 345.986 16.2463 310.529 25.3106C275.327 34.3777 262.234 36.6517 245.933 36.6517C228.968 36.6517 212.81 33.9786 183.068 25.9764C156.271 18.8439 138.932 15.285 121.4 15.285C103.868 15.285 86.1278 18.8441 58.5297 25.9769C28.9309 33.71 12.7691 36.6517 1 36.6517H0.75V36.4017V32.4017V32.1517H1C12.6975 32.1517 28.8024 29.2268 58.4035 21.4931L58.4044 21.4929C72.4031 17.8932 88.545 14.0243 94.4219 12.9557Z" fill="#7E7E7E" stroke="#7E7E7E" stroke-width="0.5"/>
</svg>
